{"title":"Talaash (2012) Hindi 1CD DVDRip XviD MP3 ESubs","uid":8166108,"size":744430021,"categoryP":"video","categoryS":"movies","magnet":"?xt=urn:btih:355785b66136a788c75e0d4d01afbd7453c24084&amp;dn=Talaash+%282012%29+Hindi+1CD+DVDRip+XviD+MP3+ESubs&amp;tr=udp%3A%2F%2Ftracker.openbittorrent.com%3A80&amp;tr=udp%3A%2F%2Fopen.demonii.com%3A1337&amp;tr=udp%3A%2F%2Ftracker.coppersurfer.tk%3A6969&amp;tr=udp%3A%2F%2Fexodus.desync.com%3A6969","seeders":1,"leechers":0,"uploader":"HDvideos","files":4,"time":1361337911,"description":"mastitorrents.com\n  &lt;a href=&quot;\nhttp://mastitorrents.com/forums/index.php&quot; rel=&quot;nofollow&quot; target=&quot;_NEW&quot;&gt;\nhttp://mastitorrents.com/forums/index.php&lt;/a&gt;\n  &lt;a href=&quot;\nhttp://thepiratebay.se/user/HDvideos/0/7&quot; rel=&quot;nofollow&quot; target=&quot;_NEW&quot;&gt;\nhttp://thepiratebay.se/user/HDvideos/0/7&lt;/a&gt;\n\nTalaash (2012) Hindi 1CD DVDRip XviD MP3 ESubs\n\nRip INformation\n\nFormat                                   : AVI\nFormat/Info                              : Audio Video Interleave\nFile size                                : 698 MiB\nDuration                                 : 2h 20mn\nOverall bit rate                         : 694 Kbps\n\nVideo\n\nCodec ID                                 : XVID\nCodec ID/Hint                            : XviD\nDuration                                 : 2h 20mn\nBit rate                                 : 558 Kbps\nWidth                                    : 688 pixels\nHeight                                   : 288 pixels\nDisplay aspect ratio                     : 2.40:1\nFrame rate                               : 23.976 fps\nColor space                              : YUV\nChroma subsampling                       : 4:2:0\nBit depth                                : 8 bits\nScan type                                : Progressive\nCompression mode                         : Lossy\nBits/(Pixel*Frame)                       : 0.118\nStream size                              : 561 MiB (80%)\n\nAudio\n\nCodec ID                                 : 2000\nDuration                                 : 2h 20mn\nBit rate mode                            : Constant\nBit rate                                 : 128 Kbps\nChannel(s)                               : 6 channels\nChannel positions                        : Front: L C R, Side: L R, LFE\nSampling rate                            : 48.0 KHz\nBit depth                                : 16 bits\nCompression mode                         : Lossy\nStream size                              : 129 MiB (18%)\nAlignment                                : Aligned on interleaves\nInterleave, duration                     : 64 ms (1.53 video frames)\nInterleave, preload duration             : 192 ms\nTitle                                    : K@rtik\n\nScreens: &lt;a href=&quot;\nhttp://img96.imageshack.us/img96/6341/talaash2012001.jpg&quot; rel=&quot;nofollow&quot; target=&quot;_NEW&quot;&gt;\nhttp://img96.imageshack.us/img96/6341/talaash2012001.jpg&lt;/a&gt; &lt;a href=&quot;\nhttp://img802.imageshack.us/img802/6184/58857942.png&quot; rel=&quot;nofollow&quot; target=&quot;_NEW&quot;&gt;\nhttp://img802.imageshack.us/img802/6184/58857942.png&lt;/a&gt; &lt;a href=&quot;\nhttp://img541.imageshack.us/img541/4476/71994790.png&quot; rel=&quot;nofollow&quot; target=&quot;_NEW&quot;&gt;\nhttp://img541.imageshack.us/img541/4476/71994790.png&lt;/a&gt; &lt;a href=&quot;\nhttp://img853.imageshack.us/img853/2643/83828948.png&quot; rel=&quot;nofollow&quot; target=&quot;_NEW&quot;&gt;\nhttp://img853.imageshack.us/img853/2643/83828948.png&lt;/a&gt; &lt;a href=&quot;\nhttp://img547.imageshack.us/img547/3786/90922147.png&quot; rel=&quot;nofollow&quot; target=&quot;_NEW&quot;&gt;\nhttp://img547.imageshack.us/img547/3786/90922147.png&lt;/a&gt; &lt;a href=&quot;\nhttp://img10.imageshack.us/img10/1632/25938895.png&quot; rel=&quot;nofollow&quot; target=&quot;_NEW&quot;&gt;\nhttp://img10.imageshack.us/img10/1632/25938895.png&lt;/a&gt; &lt;a href=&quot;\nhttp://img838.imageshack.us/img838/2356/45180523.png&quot; rel=&quot;nofollow&quot; target=&quot;_NEW&quot;&gt;\nhttp://img838.imageshack.us/img838/2356/45180523.png&lt;/a&gt; &lt;a href=&quot;\nhttp://img41.imageshack.us/img41/5283/99236039.png&quot; rel=&quot;nofollow&quot; target=&quot;_NEW&quot;&gt;\nhttp://img41.imageshack.us/img41/5283/99236039.png&lt;/a&gt; &lt;a href=&quot;\nhttp://img832.imageshack.us/img832/895/71484984.png&quot; rel=&quot;nofollow&quot; target=&quot;_NEW&quot;&gt;\nhttp://img832.imageshack.us/img832/895/71484984.png&lt;/a&gt; &lt;a href=&quot;\nhttp://img827.imageshack.us/img827/1341/42293564.png&quot; rel=&quot;nofollow&quot; target=&quot;_NEW&quot;&gt;\nhttp://img827.imageshack.us/img827/1341/42293564.png&lt;/a&gt; &lt;a href=&quot;\nhttp://img138.imageshack.us/img138/2825/37916069.png&quot; rel=&quot;nofollow&quot; target=&quot;_NEW&quot;&gt;\nhttp://img138.imageshack.us/img138/2825/37916069.png&lt;/a&gt; &lt;a href=&quot;\nhttp://img407.imageshack.us/img407/8461/90585295.png&quot; rel=&quot;nofollow&quot; target=&quot;_NEW&quot;&gt;\nhttp://img407.imageshack.us/img407/8461/90585295.png&lt;/a&gt;","torrent":{"xt":"urn:btih:355785b66136a788c75e0d4d01afbd7453c24084","amp;dn":"Talaash+%282012%29+Hindi+1CD+DVDRip+XviD+MP3+ESubs","amp;tr":["udp%3A%2F%2Ftracker.openbittorrent.com%3A80","udp%3A%2F%2Fopen.demonii.com%3A1337","udp%3A%2F%2Ftracker.coppersurfer.tk%3A6969","udp%3A%2F%2Fexodus.desync.com%3A6969"],"infoHash":"355785b66136a788c75e0d4d01afbd7453c24084","infoHashBuffer":{"type":"Buffer","data":[53,87,133,182,97,54,167,136,199,94,13,77,1,175,189,116,83,194,64,132]},"announce":[],"urlList":[]}}